<?xml version="1.0" standalone="no"?>
<!DOCTYPE svg PUBLIC "-//W3C//DTD SVG 20010904//EN"
 "http://www.w3.org/TR/2001/REC-SVG-20010904/DTD/svg10.dtd">
<svg version="1.0" xmlns="http://www.w3.org/2000/svg"
 width="128.000000pt" height="128.000000pt" viewBox="0 0 128.000000 128.000000"
 preserveAspectRatio="xMidYMid meet">
<metadata>
Created by potrace 1.14, written by Peter Selinger 2001-2017
</metadata>
<g transform="translate(0.000000,128.000000) scale(0.100000,-0.100000)"
fill="#000000" stroke="none">
<path d="M510 1218 c0 -11 -8 -18 -18 -18 -22 0 -102 -37 -102 -48 0 -16 -50
-63 -60 -57 -11 7 -40 -17 -40 -34 0 -6 -4 -11 -10 -11 -5 0 -10 -7 -10 -16 0
-8 -7 -22 -15 -31 -8 -8 -13 -19 -10 -24 4 -5 0 -6 -8 -3 -8 3 -27 -6 -42 -20
-24 -22 -28 -34 -29 -86 0 -33 -5 -60 -9 -60 -5 0 -2 -7 6 -15 16 -15 92 -36
101 -27 3 2 19 -1 35 -8 18 -7 38 -9 48 -4 25 11 66 11 81 0 11 -8 16 2 14 25
-1 4 8 15 18 24 11 10 20 15 20 10 0 -4 8 -1 17 6 11 10 14 10 9 2 -11 -19 1
-16 29 9 27 23 71 33 81 17 3 -5 7 -29 9 -52 8 -110 -97 -206 -235 -214 -74
-4 -94 -9 -86 -22 4 -5 0 -11 -6 -14 -14 -5 -83 27 -93 43 -6 10 -87 55 -93
51 -1 -1 -18 6 -38 14 -25 10 -41 12 -49 5 -6 -5 -15 -6 -20 -2 -4 4 -4 -4 0
-18 7 -23 51 -81 68 -88 4 -2 5 -8 1 -13 -3 -5 2 -9 10 -9 11 0 16 -10 16 -31
0 -18 4 -28 10 -24 6 4 7 12 4 18 -3 7 8 -2 25 -20 17 -18 31 -35 31 -38 0 -3
12 -17 26 -30 15 -14 23 -25 19 -25 -5 0 0 -7 11 -15 10 -8 15 -15 10 -15 -15
0 26 -40 42 -40 10 0 12 -7 8 -26 -4 -16 -3 -23 3 -20 5 4 18 -7 28 -24 12
-21 24 -30 35 -27 10 3 16 2 15 -3 -4 -14 101 -117 116 -114 10 1 14 -3 10
-12 -3 -9 1 -12 14 -10 10 2 38 -3 62 -11 36 -12 45 -12 52 -1 7 10 9 11 9 0
0 -7 5 -10 10 -7 5 3 10 -2 10 -12 1 -17 1 -17 14 0 14 18 32 24 21 7 -3 -5 3
-10 14 -10 10 0 21 5 23 11 2 5 18 11 36 11 17 1 32 4 32 8 0 4 10 5 23 3 22
-4 77 37 77 59 0 5 13 14 29 19 16 6 41 27 54 48 26 39 106 111 123 111 5 0 3
-4 -5 -9 -9 -6 -11 -14 -4 -26 7 -12 13 -14 17 -6 4 6 1 11 -6 11 -8 0 -6 5 5
11 11 6 17 20 15 32 -3 29 9 47 33 47 11 0 18 4 15 9 -3 4 7 6 22 3 25 -5 26
-4 12 13 -13 17 -13 18 0 10 13 -8 13 -7 1 8 -11 14 -11 20 -1 32 7 8 15 13
19 10 10 -6 41 32 41 50 0 7 4 16 9 19 9 6 7 70 -4 105 -3 12 -23 39 -43 61
-53 56 -64 70 -55 70 4 0 3 4 -3 8 -5 4 -20 23 -32 42 -11 19 -33 47 -47 62
-18 19 -26 40 -28 70 -1 31 -7 45 -20 50 -10 4 -24 24 -33 43 -8 19 -18 35
-22 35 -4 0 -16 14 -27 30 -11 16 -24 30 -29 30 -4 0 -16 11 -27 24 -18 22
-152 74 -174 67 -13 -3 -29 -3 -85 2 -25 2 -53 0 -64 -5 -14 -7 -16 -7 -11 2
6 9 2 9 -15 0 -18 -10 -24 -9 -31 1 -7 11 -9 10 -9 -3z"/>
<path d="M1050 270 c-13 -8 -13 -10 2 -10 9 0 20 5 23 10 8 13 -5 13 -25 0z"/>
<path d="M900 110 c0 -5 5 -10 10 -10 6 0 10 5 10 10 0 6 -4 10 -10 10 -5 0
-10 -4 -10 -10z"/>
</g>
</svg>
